<svg xmlns="http://www.w3.org/2000/svg" width="50" height="50" viewBox="0 0 50 50"><path fill="#1E2E4F" d="M33.802 21.094l-8.802 8.802-8.802-8.803c-.208-.208-.521-.208-.729 0-.208.208-.208.521 0 .729l9.167 9.167c.104.104.208.156.365.156s.26-.053.365-.156l9.167-9.167c.208-.208.208-.521 0-.729-.21-.208-.523-.208-.731.001zm-8.802-21.094c-13.802 0-25 11.198-25 25s11.198 25 25 25 25-11.198 25-25-11.198-25-25-25zm0 48.958c-13.229 0-23.958-10.781-23.958-23.958s10.781-23.958 23.958-23.958 23.958 10.781 23.958 23.958-10.729 23.958-23.958 23.958z"/></svg>